<svg xmlns="http://www.w3.org/2000/svg" xmlns:xlink="http://www.w3.org/1999/xlink" width="403" zoomAndPan="magnify" viewBox="0 0 302.25 125.249995" height="167" preserveAspectRatio="xMidYMid meet" version="1.0"><defs><g/><clipPath id="5ae3c6bea4"><path d="M 2 0 L 127 0 L 127 123.757812 L 2 123.757812 Z M 2 0 " clip-rule="nonzero"/></clipPath></defs><g clip-path="url(#5ae3c6bea4)"><path fill="#202028" d="M 126.75 61.878906 C 126.75 27.703125 99.019531 0 64.8125 0 C 30.601562 0 2.875 27.703125 2.875 61.878906 C 2.875 96.054688 30.601562 123.757812 64.8125 123.757812 C 99.019531 123.757812 126.75 96.054688 126.75 61.878906 Z M 126.75 61.878906 " fill-opacity="1" fill-rule="nonzero"/></g><path fill="#f3f4f6" d="M 94.863281 81.894531 L 34.757812 81.894531 C 25.441406 81.894531 17.886719 74.351562 17.886719 65.039062 C 17.886719 55.722656 25.433594 48.183594 34.757812 48.183594 L 94.863281 48.183594 C 104.179688 48.183594 111.734375 55.730469 111.734375 65.039062 C 111.734375 74.34375 104.1875 81.894531 94.863281 81.894531 Z M 94.863281 81.894531 " fill-opacity="1" fill-rule="nonzero"/><path fill="#202028" d="M 56.6875 66.351562 L 34.597656 52.410156 L 33.046875 54.847656 L 43.222656 61.761719 C 41.421875 63.195312 40.273438 65.386719 40.273438 67.859375 C 40.273438 72.171875 43.777344 75.671875 48.09375 75.671875 C 51.625 75.671875 54.566406 73.332031 55.539062 70.128906 L 55.570312 70.148438 L 56.6875 66.359375 Z M 56.6875 66.351562 " fill-opacity="1" fill-rule="nonzero"/><path fill="#202028" d="M 72.941406 66.351562 L 95.03125 52.410156 L 96.574219 54.847656 L 86.398438 61.761719 C 88.199219 63.195312 89.347656 65.386719 89.347656 67.859375 C 89.347656 72.171875 85.84375 75.671875 81.527344 75.671875 C 78 75.671875 75.0625 73.332031 74.082031 70.128906 L 74.050781 70.148438 L 72.941406 66.359375 Z M 72.941406 66.351562 " fill-opacity="1" fill-rule="nonzero"/><g fill="#ffffff" fill-opacity="1"><g transform="translate(154.036121, 83.935113)"><g><path d="M 33.109375 -8.828125 L 27.984375 -8.828125 L 27.984375 0 L 19.1875 0 L 19.1875 -8.828125 L 1.015625 -8.828125 L 1.015625 -15.078125 L 19.6875 -42.578125 L 27.984375 -42.578125 L 27.984375 -15.8125 L 33.109375 -15.8125 Z M 19.1875 -15.8125 L 19.1875 -23.03125 C 19.1875 -24.238281 19.234375 -25.988281 19.328125 -28.28125 C 19.429688 -30.570312 19.507812 -31.898438 19.5625 -32.265625 L 19.34375 -32.265625 C 18.625 -30.671875 17.757812 -29.117188 16.75 -27.609375 L 8.9375 -15.8125 Z M 19.1875 -15.8125 "/></g></g></g><g fill="#ffffff" fill-opacity="1"><g transform="translate(188.073664, 83.935113)"><g/></g></g><g fill="#ffffff" fill-opacity="1"><g transform="translate(203.5638, 83.935113)"><g><path d="M 40.6875 -21.703125 C 40.6875 -14.691406 38.691406 -9.320312 34.703125 -5.59375 C 30.710938 -1.863281 24.953125 0 17.421875 0 L 5.359375 0 L 5.359375 -42.578125 L 18.71875 -42.578125 C 25.675781 -42.578125 31.078125 -40.738281 34.921875 -37.0625 C 38.765625 -33.394531 40.6875 -28.273438 40.6875 -21.703125 Z M 31.3125 -21.46875 C 31.3125 -30.601562 27.269531 -35.171875 19.1875 -35.171875 L 14.390625 -35.171875 L 14.390625 -7.453125 L 18.265625 -7.453125 C 26.960938 -7.453125 31.3125 -12.125 31.3125 -21.46875 Z M 31.3125 -21.46875 "/></g></g></g><g fill="#ffffff" fill-opacity="1"><g transform="translate(247.704867, 83.935113)"><g><path d="M 21.78125 0 L 12.75 0 L 12.75 -35.0625 L 1.1875 -35.0625 L 1.1875 -42.578125 L 33.34375 -42.578125 L 33.34375 -35.0625 L 21.78125 -35.0625 Z M 21.78125 0 "/></g></g></g></svg>